<?xml version="1.0" standalone="no"?>
<!DOCTYPE svg PUBLIC "-//W3C//DTD SVG 20010904//EN"
 "http://www.w3.org/TR/2001/REC-SVG-20010904/DTD/svg10.dtd">
<svg version="1.0" xmlns="http://www.w3.org/2000/svg"
 width="275.000000pt" height="183.000000pt" viewBox="0 0 275.000000 183.000000"
 preserveAspectRatio="xMidYMid meet">

<g transform="translate(0.000000,183.000000) scale(0.100000,-0.100000)"
fill="#000000" stroke="none">
<path d="M0 1496 l0 -334 63 -6 c34 -3 91 -9 125 -14 l64 -8 -6 28 c-5 25 -3
28 20 28 27 0 65 -16 77 -34 5 -8 10 -7 16 3 7 11 10 10 18 -3 9 -16 14 -15
58 8 46 25 56 26 203 26 133 0 162 3 196 19 32 15 72 21 178 25 102 4 144 9
162 21 22 14 28 15 53 2 30 -15 153 -12 153 4 0 14 58 11 63 -3 4 -10 8 -9 16
2 6 8 11 12 11 8 0 -4 13 -3 30 2 36 10 40 -2 5 -18 -32 -15 -47 -52 -50 -122
-2 -43 3 -62 21 -91 25 -40 44 -57 44 -40 0 13 49 15 67 3 6 -4 17 -20 23 -36
9 -24 8 -27 -5 -22 -25 9 -45 -4 -45 -31 0 -13 4 -22 8 -19 4 2 13 1 20 -3 9
-5 5 -11 -13 -19 -15 -7 -24 -8 -20 -2 3 5 0 10 -9 10 -25 0 -46 -12 -46 -25
0 -7 -7 -15 -15 -19 -19 -7 -20 -52 -1 -63 8 -4 14 -17 13 -27 -1 -13 5 -19
21 -21 28 -2 43 -22 34 -44 -5 -13 -3 -14 9 -4 15 12 69 6 69 -8 0 -14 -18
-20 -23 -7 -3 10 -7 10 -21 -1 -14 -12 -23 -12 -57 -1 -30 10 -42 11 -48 2 -3
-6 -30 -13 -58 -16 -40 -4 -53 -2 -57 10 -4 12 -10 13 -26 4 -13 -7 -20 -7
-20 0 0 5 -6 10 -14 10 -8 0 -16 6 -19 13 -6 15 -67 11 -67 -3 0 -5 -14 -12
-32 -15 -17 -4 -38 -14 -46 -22 -8 -8 -21 -12 -29 -9 -7 3 -24 0 -36 -7 -12
-6 -24 -13 -26 -14 -2 -1 6 -15 18 -31 12 -17 21 -35 21 -40 0 -11 -39 -28
-54 -23 -5 1 -1 -9 8 -24 l16 -25 -49 0 c-31 0 -53 -5 -61 -15 -7 -8 -18 -15
-26 -15 -7 0 -17 -6 -21 -14 -4 -8 -32 -27 -62 -43 -30 -15 -56 -34 -58 -40
-3 -7 12 -28 32 -48 25 -23 31 -35 21 -35 -9 0 -16 -4 -16 -10 0 -5 -22 -10
-50 -10 -38 0 -50 -4 -50 -15 0 -17 -26 -19 -81 -6 -21 5 -43 5 -49 1 -14 -9
-5 -30 13 -30 7 0 23 -10 37 -21 l25 -20 -72 3 c-77 4 -92 10 -75 30 7 9 7 18
-2 31 -16 21 -36 22 -36 3 0 -20 -40 -32 -51 -15 -6 10 -9 6 -9 -13 0 -29 26
-44 60 -33 13 4 20 2 20 -7 0 -7 3 -24 6 -38 5 -23 4 -23 -8 -8 -10 12 -33 18
-74 20 l-59 3 3 33 c1 17 -2 32 -8 32 -5 0 -10 8 -10 18 0 13 -13 23 -41 32
-41 14 -64 40 -64 75 0 15 -6 19 -23 18 -13 -2 -21 1 -17 7 3 6 -1 10 -9 10
-20 0 -31 20 -16 30 24 15 2 37 -60 59 -34 13 -69 31 -78 42 -39 46 -42 31
-42 -231 l0 -250 1375 0 1375 0 0 915 0 915 -188 0 c-186 0 -212 -4 -212 -35
0 -5 5 -3 10 5 5 8 10 10 10 4 0 -14 -49 -49 -82 -57 -31 -8 -73 -49 -90 -89
-11 -25 -16 -27 -55 -21 -29 4 -43 2 -43 -6 0 -16 -40 -13 -46 4 -8 21 -26 7
-23 -18 2 -38 -1 -47 -16 -47 -8 0 -15 -5 -15 -11 0 -6 6 -9 12 -6 7 2 25 -2
39 -9 31 -16 36 -55 11 -94 -10 -16 -17 -53 -19 -103 -2 -72 -1 -79 18 -84 15
-4 19 -12 17 -31 -2 -14 -9 -28 -17 -30 -10 -3 -12 0 -7 13 7 18 -9 45 -26 45
-6 0 -8 -7 -4 -15 3 -8 1 -15 -4 -15 -5 0 -10 -8 -12 -17 -3 -15 -5 -14 -10 5
-3 12 -2 20 3 16 5 -3 7 5 5 18 -3 13 -5 29 -5 36 -1 6 -6 12 -11 12 -6 0 -30
9 -54 21 -36 16 -57 20 -105 15 -33 -2 -68 -9 -78 -14 -34 -18 -85 -21 -108
-6 -20 13 -25 12 -48 -6 -26 -21 -67 -27 -67 -10 0 5 10 9 22 7 15 -1 26 5 33
21 5 12 17 22 26 22 9 0 22 7 29 15 7 8 17 15 22 15 21 0 68 42 68 60 0 31 22
73 31 58 5 -8 11 -4 18 14 12 32 50 56 61 39 7 -12 40 -4 40 10 0 4 -6 12 -14
16 -11 6 -6 14 20 33 18 14 46 50 61 82 15 32 33 58 40 58 6 0 13 4 15 8 2 4
25 17 52 28 27 11 51 25 54 32 3 9 -234 12 -1052 12 l-1056 0 0 -334z m2127
88 c-3 -3 -12 -4 -19 -1 -8 3 -5 6 6 6 11 1 17 -2 13 -5z m-50 -443 c-3 -15
-1 -33 6 -40 15 -15 -15 -46 -37 -38 -17 7 -23 67 -7 67 5 0 13 9 16 20 10 31
28 24 22 -9z m-563 -337 c9 -3 16 -16 16 -28 -1 -21 -1 -21 -12 -1 -6 11 -16
23 -22 27 -13 9 -3 10 18 2z m-703 -605 c-9 -22 -10 -22 -10 -3 -1 11 2 24 6
27 12 12 14 0 4 -24z"/>
<path d="M2040 1100 c0 -5 5 -10 10 -10 6 0 10 5 10 10 0 6 -4 10 -10 10 -5 0
-10 -4 -10 -10z"/>
<path d="M1960 1596 c0 -2 9 -6 20 -9 11 -3 20 -1 20 4 0 5 -9 9 -20 9 -11 0
-20 -2 -20 -4z"/>
<path d="M255 1100 c3 -5 8 -10 11 -10 2 0 4 5 4 10 0 6 -5 10 -11 10 -5 0 -7
-4 -4 -10z"/>
<path d="M309 1065 c37 -17 71 -21 56 -6 -6 5 -28 12 -50 16 l-40 6 34 -16z"/>
<path d="M3 1035 c0 -8 4 -15 8 -15 4 0 9 7 13 15 3 9 0 15 -8 15 -7 0 -13 -7
-13 -15z"/>
<path d="M0 617 c0 -11 8 -17 25 -17 16 0 25 -6 25 -15 0 -8 7 -15 16 -15 8 0
13 -4 10 -9 -3 -5 10 -11 28 -13 34 -4 34 -3 21 22 -17 32 -59 73 -49 47 4
-12 1 -17 -10 -17 -9 0 -16 5 -16 11 0 6 -6 9 -14 6 -7 -3 -19 0 -25 6 -8 8
-11 7 -11 -6z"/>
<path d="M748 308 c5 -5 16 -8 23 -6 8 3 3 7 -10 11 -17 4 -21 3 -13 -5z"/>
</g>
</svg>
